<svg width="120" height="120" viewBox="0 0 120 120" fill="none" xmlns="http://www.w3.org/2000/svg">
<path d="M120 60.4448C120 52.4953 110.045 44.9617 94.7819 40.2899C98.3041 24.7334 96.7387 12.3567 89.841 8.39421C88.2511 7.46474 86.3922 7.02446 84.362 7.02446V12.479C85.4872 12.479 86.3922 12.6991 87.1504 13.115C90.477 15.0228 91.9201 22.2874 90.795 31.6311C90.5259 33.9303 90.0856 36.3518 89.5475 38.8223C84.7534 37.6482 79.519 36.7432 74.0155 36.1561C70.7134 31.6311 67.289 27.5218 63.8402 23.9262C71.8141 16.5149 79.2988 12.4545 84.3865 12.4545V7C77.66 7 68.8545 11.7941 59.9511 20.1105C51.0477 11.8431 42.2422 7.09784 35.5157 7.09784V12.5524C40.5789 12.5524 48.0881 16.5883 56.062 23.9507C52.6376 27.5463 49.2132 31.6311 45.9601 36.1561C40.4321 36.7432 35.1977 37.6482 30.4036 38.8467C29.841 36.4007 29.4252 34.0281 29.1317 31.7534C27.9821 22.4097 29.4007 15.1451 32.7028 13.2128C33.4366 12.7725 34.3905 12.5768 35.5157 12.5768V7.1223C33.4611 7.1223 31.6021 7.56258 29.9878 8.49205C23.1146 12.4545 21.5736 24.8068 25.1203 40.3143C9.90624 45.0106 0 52.5198 0 60.4448C0 68.3942 9.95516 75.9278 25.2181 80.5997C21.6959 96.1561 23.2613 108.533 30.159 112.495C31.7489 113.425 33.6078 113.865 35.6625 113.865C42.3889 113.865 51.1945 109.071 60.0978 100.755C69.0012 109.022 77.8068 113.767 84.5332 113.767C86.5879 113.767 88.4468 113.327 90.0612 112.397C96.9344 108.435 98.4753 96.0828 94.9287 80.5752C110.094 75.9034 120 68.3697 120 60.4448ZM88.1533 44.13C87.2483 47.2854 86.1231 50.5385 84.8512 53.7917C83.8483 51.8349 82.7966 49.8781 81.647 47.9213C80.5218 45.9645 79.3233 44.0567 78.1248 42.1977C81.5981 42.7114 84.949 43.3473 88.1533 44.13ZM76.9507 70.1798C75.0428 73.4819 73.086 76.6127 71.0559 79.5234C67.4113 79.8414 63.7179 80.0126 60 80.0126C56.3066 80.0126 52.6131 79.8414 48.9931 79.5479C46.9629 76.6372 44.9817 73.5308 43.0738 70.2532C41.2148 67.0489 39.5271 63.7958 37.9861 60.5181C39.5027 57.2405 41.2148 53.9629 43.0493 50.7587C44.9572 47.4566 46.914 44.3257 48.9441 41.415C52.5887 41.097 56.2821 40.9258 60 40.9258C63.6934 40.9258 67.3869 41.097 71.0069 41.3905C73.0371 44.3013 75.0183 47.4077 76.9262 50.6853C78.7852 53.8895 80.4729 57.1427 82.0139 60.4203C80.4729 63.6979 78.7852 66.9755 76.9507 70.1798ZM84.8512 67C86.172 70.2776 87.2972 73.5552 88.2267 76.735C85.0224 77.5177 81.647 78.1781 78.1492 78.6918C79.3477 76.8084 80.5463 74.8761 81.6714 72.8948C82.7966 70.938 83.8483 68.9568 84.8512 67ZM60.0489 93.0987C57.7742 90.7505 55.4994 88.1333 53.2491 85.2715C55.4505 85.3693 57.7008 85.4427 59.9755 85.4427C62.2748 85.4427 64.5495 85.3938 66.7754 85.2715C64.574 88.1333 62.2992 90.7505 60.0489 93.0987ZM41.8508 78.6918C38.3775 78.1781 35.0265 77.5422 31.8223 76.7595C32.7273 73.6042 33.8524 70.351 35.1243 67.0978C36.1272 69.0546 37.179 71.0114 38.3286 72.9682C39.4782 74.925 40.6523 76.8329 41.8508 78.6918ZM59.9266 27.7909C62.2014 30.139 64.4761 32.7562 66.7265 35.618C64.5251 35.5202 62.2748 35.4468 60 35.4468C57.7008 35.4468 55.426 35.4957 53.2002 35.618C55.4016 32.7562 57.6763 30.139 59.9266 27.7909ZM41.8263 42.1977C40.6278 44.0811 39.4293 46.0135 38.3041 47.9947C37.179 49.9515 36.1272 51.9083 35.1243 53.8651C33.8035 50.5874 32.6784 47.3098 31.7489 44.13C34.9531 43.3718 38.3286 42.7114 41.8263 42.1977ZM19.6902 72.8214C11.0314 69.128 5.43009 64.285 5.43009 60.4448C5.43009 56.6046 11.0314 51.7371 19.6902 48.0681C21.7937 47.1631 24.0929 46.3559 26.4656 45.5976C27.8598 50.3918 29.6943 55.3816 31.969 60.4937C29.7187 65.5813 27.9087 70.5467 26.5389 75.3163C24.1174 74.5581 21.8182 73.7265 19.6902 72.8214ZM32.8496 107.775C29.523 105.867 28.0799 98.6021 29.2051 89.2585C29.4741 86.9592 29.9144 84.5377 30.4525 82.0673C35.2466 83.2413 40.4811 84.1463 45.9845 84.7334C49.2866 89.2585 52.711 93.3677 56.1598 96.9633C48.1859 104.375 40.7012 108.435 35.6135 108.435C34.5128 108.411 33.5834 108.19 32.8496 107.775ZM90.8683 89.1362C92.0179 98.4798 90.5993 105.744 87.2972 107.677C86.5634 108.117 85.6095 108.313 84.4843 108.313C79.4211 108.313 71.912 104.277 63.938 96.9144C67.3624 93.3188 70.7868 89.234 74.04 84.7089C79.5679 84.1219 84.8023 83.2169 89.5964 82.0183C90.159 84.4888 90.5993 86.8614 90.8683 89.1362ZM100.285 72.8214C98.1818 73.7265 95.8826 74.5336 93.51 75.2919C92.1158 70.4978 90.2813 65.5079 88.0065 60.3958C90.2568 55.3082 92.0669 50.3428 93.4366 45.5732C95.8581 46.3314 98.1574 47.1631 100.31 48.0681C108.969 51.7615 114.57 56.6046 114.57 60.4448C114.545 64.285 108.944 69.1525 100.285 72.8214Z" fill="white"/>
<path d="M60 71.5078C66.0751 71.5078 71 66.5829 71 60.5078C71 54.4327 66.0751 49.5078 60 49.5078C53.9249 49.5078 49 54.4327 49 60.5078C49 66.5829 53.9249 71.5078 60 71.5078Z" fill="white"/>
</svg>
