<svg width="120" height="121" viewBox="0 0 120 121" fill="none" xmlns="http://www.w3.org/2000/svg">
<path d="M120 60.9369C120 52.9875 110.045 45.4539 94.7819 40.782C98.3041 25.2256 96.7387 12.8489 89.841 8.8864C88.2511 7.95692 86.3922 7.51665 84.362 7.51665V12.9712C85.4872 12.9712 86.3922 13.1913 87.1504 13.6071C90.477 15.515 91.9201 22.7796 90.795 32.1233C90.5259 34.4225 90.0856 36.844 89.5475 39.3144C84.7534 38.1404 79.519 37.2354 74.0155 36.6483C70.7134 32.1233 67.289 28.014 63.8402 24.4184C71.8141 17.0071 79.2988 12.9467 84.3865 12.9467V7.49219C77.66 7.49219 68.8545 12.2863 59.9511 20.6027C51.0477 12.3352 42.2422 7.59003 35.5157 7.59003V13.0446C40.5789 13.0446 48.0881 17.0804 56.062 24.4429C52.6376 28.0385 49.2132 32.1233 45.9601 36.6483C40.4321 37.2354 35.1977 38.1404 30.4036 39.3389C29.841 36.8929 29.4252 34.5203 29.1317 32.2456C27.9821 22.9019 29.4007 15.6373 32.7028 13.705C33.4366 13.2647 34.3905 13.069 35.5157 13.069V7.61449C33.4611 7.61449 31.6021 8.05476 29.9878 8.98424C23.1146 12.9467 21.5736 25.299 25.1203 40.8065C9.90624 45.5028 0 53.012 0 60.9369C0 68.8864 9.95516 76.42 25.2181 81.0919C21.6959 96.6483 23.2613 109.025 30.159 112.987C31.7489 113.917 33.6078 114.357 35.6625 114.357C42.3889 114.357 51.1945 109.563 60.0978 101.247C69.0012 109.514 77.8068 114.259 84.5332 114.259C86.5879 114.259 88.4468 113.819 90.0612 112.89C96.9344 108.927 98.4753 96.5749 94.9287 81.0674C110.094 76.3956 120 68.8619 120 60.9369ZM88.1533 44.6222C87.2483 47.7776 86.1231 51.0307 84.8512 54.2839C83.8483 52.3271 82.7966 50.3703 81.647 48.4135C80.5218 46.4567 79.3233 44.5489 78.1248 42.6899C81.5981 43.2036 84.949 43.8395 88.1533 44.6222ZM76.9507 70.672C75.0428 73.974 73.086 77.1049 71.0559 80.0156C67.4113 80.3336 63.7179 80.5048 60 80.5048C56.3066 80.5048 52.6131 80.3336 48.9931 80.0401C46.9629 77.1294 44.9817 74.023 43.0738 70.7453C41.2148 67.5411 39.5271 64.2879 37.9861 61.0103C39.5027 57.7327 41.2148 54.4551 43.0493 51.2508C44.9572 47.9488 46.914 44.8179 48.9441 41.9072C52.5887 41.5892 56.2821 41.418 60 41.418C63.6934 41.418 67.3869 41.5892 71.0069 41.8827C73.0371 44.7935 75.0183 47.8999 76.9262 51.1775C78.7852 54.3817 80.4729 57.6349 82.0139 60.9125C80.4729 64.1901 78.7852 67.4677 76.9507 70.672ZM84.8512 67.4922C86.172 70.7698 87.2972 74.0474 88.2267 77.2272C85.0224 78.0099 81.647 78.6703 78.1492 79.184C79.3477 77.3006 80.5463 75.3683 81.6714 73.387C82.7966 71.4302 83.8483 69.449 84.8512 67.4922ZM60.0489 93.5908C57.7742 91.2427 55.4994 88.6255 53.2491 85.7637C55.4505 85.8615 57.7008 85.9349 59.9755 85.9349C62.2748 85.9349 64.5495 85.886 66.7754 85.7637C64.574 88.6255 62.2992 91.2427 60.0489 93.5908ZM41.8508 79.184C38.3775 78.6703 35.0265 78.0344 31.8223 77.2517C32.7273 74.0964 33.8524 70.8432 35.1243 67.59C36.1272 69.5468 37.179 71.5036 38.3286 73.4604C39.4782 75.4172 40.6523 77.325 41.8508 79.184ZM59.9266 28.2831C62.2014 30.6312 64.4761 33.2484 66.7265 36.1102C64.5251 36.0124 62.2748 35.939 60 35.939C57.7008 35.939 55.426 35.9879 53.2002 36.1102C55.4016 33.2484 57.6763 30.6312 59.9266 28.2831ZM41.8263 42.6899C40.6278 44.5733 39.4293 46.5056 38.3041 48.4869C37.179 50.4437 36.1272 52.4005 35.1243 54.3573C33.8035 51.0796 32.6784 47.802 31.7489 44.6222C34.9531 43.864 38.3286 43.2036 41.8263 42.6899ZM19.6902 73.3136C11.0314 69.6202 5.43009 64.7771 5.43009 60.9369C5.43009 57.0968 11.0314 52.2292 19.6902 48.5603C21.7937 47.6553 24.0929 46.8481 26.4656 46.0898C27.8598 50.884 29.6943 55.8738 31.969 60.9859C29.7187 66.0735 27.9087 71.0389 26.5389 75.8085C24.1174 75.0503 21.8182 74.2186 19.6902 73.3136ZM32.8496 108.267C29.523 106.359 28.0799 99.0943 29.2051 89.7506C29.4741 87.4514 29.9144 85.0299 30.4525 82.5594C35.2466 83.7335 40.4811 84.6385 45.9845 85.2256C49.2866 89.7506 52.711 93.8599 56.1598 97.4555C48.1859 104.867 40.7012 108.927 35.6135 108.927C34.5128 108.903 33.5834 108.683 32.8496 108.267ZM90.8683 89.6283C92.0179 98.972 90.5993 106.237 87.2972 108.169C86.5634 108.609 85.6095 108.805 84.4843 108.805C79.4211 108.805 71.912 104.769 63.938 97.4066C67.3624 93.811 70.7868 89.7262 74.04 85.2011C79.5679 84.6141 84.8023 83.7091 89.5964 82.5105C90.159 84.981 90.5993 87.3536 90.8683 89.6283ZM100.285 73.3136C98.1818 74.2186 95.8826 75.0258 93.51 75.7841C92.1158 70.99 90.2813 66.0001 88.0065 60.888C90.2568 55.8004 92.0669 50.835 93.4366 46.0654C95.8581 46.8236 98.1574 47.6553 100.31 48.5603C108.969 52.2537 114.57 57.0968 114.57 60.9369C114.545 64.7771 108.944 69.6447 100.285 73.3136Z" fill="#4F5359"/>
<path d="M60 72C66.0751 72 71 67.0751 71 61C71 54.9249 66.0751 50 60 50C53.9249 50 49 54.9249 49 61C49 67.0751 53.9249 72 60 72Z" fill="#4F5359"/>
</svg>
